<svg width="109" height="109" viewBox="0 0 109 109" fill="none" xmlns="http://www.w3.org/2000/svg">
<path d="M54.5009 0C24.4023 0 0 24.4009 0 54.4995C0 84.597 24.4019 109 54.5005 109C84.5991 109 108.999 84.597 108.999 54.4995C108.999 24.4009 84.5988 0 54.5009 0ZM83.5985 62.654C79.9939 76.1274 67.6843 86.0804 53.0901 86.0804C35.6757 86.0804 21.5084 71.9142 21.5084 54.4987C21.5084 37.0832 35.6746 22.9181 53.0901 22.9181C61.0492 22.9181 68.3249 25.8818 73.8827 30.7584L68.928 39.3413C64.9314 35.1678 59.3114 32.5602 53.089 32.5602C40.9923 32.5602 31.1512 42.402 31.1512 54.498C31.1512 66.5947 40.9919 76.4359 53.089 76.4359C62.3041 76.4359 70.2066 70.7214 73.4493 62.6522H65.9047L79.0456 39.8947L92.1858 62.654H83.5985V62.654Z" fill="#9B51E0"/>
</svg>
